<?xml version="1.0" standalone="no"?>
<!DOCTYPE svg PUBLIC "-//W3C//DTD SVG 20010904//EN"
 "http://www.w3.org/TR/2001/REC-SVG-20010904/DTD/svg10.dtd">
<svg version="1.0" xmlns="http://www.w3.org/2000/svg"
 width="250.000000pt" height="200.000000pt" viewBox="0 0 250.000000 200.000000"
 preserveAspectRatio="xMidYMid meet">

<g transform="translate(0.000000,200.000000) scale(0.100000,-0.100000)"
fill="#000000" stroke="none">
<path d="M1220 1877 c-3 -3 -17 -7 -31 -9 -67 -9 -124 -78 -138 -166 -5 -29
-11 -38 -30 -40 -22 -3 -23 -7 -17 -49 3 -24 15 -57 26 -72 21 -31 69 -150 77
-195 12 -60 -48 -125 -122 -133 -41 -5 -70 5 -158 53 -27 15 -137 29 -137 17
0 -3 9 -18 21 -35 12 -16 19 -31 16 -34 -6 -7 -47 18 -47 28 0 5 -8 8 -18 8
-10 0 -22 3 -26 7 -15 15 -84 33 -127 33 -29 0 -55 -7 -70 -18 -60 -45 -110
-54 -78 -15 8 10 39 68 69 128 79 160 121 215 163 215 39 0 52 -15 40 -43 -16
-35 0 -47 68 -47 74 0 101 20 102 76 1 55 -10 91 -30 99 -49 19 -130 35 -181
35 -90 0 -144 -26 -239 -112 -24 -21 -47 -38 -53 -38 -5 0 -10 -5 -10 -11 0
-14 -25 -39 -39 -39 -6 0 -11 -4 -11 -10 0 -5 -28 -39 -62 -76 -34 -36 -70
-78 -79 -92 -8 -15 -23 -33 -32 -41 -10 -7 -17 -19 -17 -27 0 -7 -7 -20 -16
-28 -26 -26 31 -96 119 -147 40 -23 106 -63 148 -89 98 -61 170 -88 249 -91
l64 -3 10 35 c14 43 37 79 52 79 9 0 11 -27 7 -99 -7 -120 5 -151 97 -251 59
-64 120 -170 120 -208 0 -32 13 -34 32 -5 10 16 18 23 18 17 0 -35 -25 -132
-46 -180 -27 -62 -23 -73 26 -74 58 -1 193 -56 278 -113 45 -30 47 -30 97 3
66 43 174 89 248 105 42 9 77 19 77 21 0 2 -13 39 -29 82 -15 43 -31 100 -35
127 l-7 50 22 -35 22 -35 13 50 c19 77 57 137 138 220 70 72 76 87 76 213 0
61 2 112 5 112 15 0 45 -44 51 -74 l6 -36 67 0 c80 0 120 14 231 77 151 86
214 127 254 166 35 33 38 41 33 73 -7 44 -83 144 -194 260 -167 172 -253 225
-365 223 -91 -1 -179 -28 -195 -59 -20 -40 -16 -103 9 -129 19 -21 28 -23 85
-18 35 2 67 8 70 11 4 3 1 17 -5 30 -13 29 1 46 36 46 40 0 98 -76 172 -226
38 -76 67 -141 64 -143 -5 -5 -53 18 -76 37 -29 24 -79 30 -133 15 -69 -19
-112 -40 -135 -65 -24 -26 -29 -3 -5 28 26 34 19 44 -32 42 -44 -1 -61 -6
-103 -29 -71 -40 -93 -49 -119 -49 -65 0 -123 39 -141 96 -10 28 -7 43 16 101
14 37 39 95 55 128 34 71 39 125 10 125 -14 0 -20 10 -24 40 -8 65 -51 127
-103 150 -45 21 -134 37 -144 27z"/>
</g>
</svg>
