<?xml version="1.0" standalone="no"?>
<!DOCTYPE svg PUBLIC "-//W3C//DTD SVG 20010904//EN"
 "http://www.w3.org/TR/2001/REC-SVG-20010904/DTD/svg10.dtd">
<svg version="1.0" xmlns="http://www.w3.org/2000/svg"
 width="512.000000pt" height="512.000000pt" viewBox="0 0 512.000000 512.000000"
 preserveAspectRatio="xMidYMid meet">

<g transform="translate(0.000000,512.000000) scale(0.100000,-0.100000)"
fill="#000000" stroke="none">
<path d="M1870 5113 c-774 -55 -1442 -570 -1698 -1308 -142 -408 -136 -893 16
-1300 257 -686 867 -1166 1592 -1255 124 -15 363 -12 491 6 208 29 417 93 601
185 l77 39 703 -698 c779 -772 754 -751 907 -774 373 -55 642 330 471 673 -15
31 -230 253 -712 735 l-689 690 47 80 c127 213 215 464 256 729 18 120 15 428
-6 555 -69 422 -252 784 -543 1075 -171 170 -321 277 -537 380 -310 149 -641
212 -976 188z m430 -156 c295 -51 560 -164 795 -341 103 -77 274 -248 351
-351 544 -724 472 -1727 -168 -2365 -191 -191 -422 -336 -683 -428 -308 -109
-695 -125 -1030 -41 -521 130 -976 510 -1195 998 -114 254 -160 471 -160 750
0 350 87 657 271 954 142 228 358 441 601 590 186 115 446 207 663 236 44 6
94 13 110 15 60 9 362 -3 445 -17z m2519 -4233 c95 -102 116 -148 116 -254 0
-105 -22 -159 -94 -229 -68 -66 -141 -94 -236 -89 -134 6 -110 -14 -859 729
l-675 670 97 73 c124 94 223 186 308 286 l67 80 605 -598 c332 -328 634 -629
671 -668z"/>
<path d="M1855 4444 c-11 -3 -56 -12 -100 -20 -432 -83 -807 -412 -951 -835
-48 -143 -65 -250 -66 -414 0 -334 119 -636 347 -874 219 -230 485 -359 806
-392 666 -69 1275 409 1379 1081 15 97 12 303 -5 403 -90 509 -484 918 -995
1032 -73 16 -371 30 -415 19z m386 -155 c393 -78 717 -368 848 -756 79 -239
76 -509 -10 -743 -166 -450 -595 -750 -1073 -750 -502 0 -949 337 -1090 821
-118 408 4 851 315 1144 270 255 637 358 1010 284z"/>
</g>
</svg>
