<?xml version="1.0" standalone="no"?>
<!DOCTYPE svg PUBLIC "-//W3C//DTD SVG 20010904//EN"
 "http://www.w3.org/TR/2001/REC-SVG-20010904/DTD/svg10.dtd">
<svg version="1.0" xmlns="http://www.w3.org/2000/svg"
 width="512.000000pt" height="512.000000pt" viewBox="0 0 512.000000 512.000000"
 preserveAspectRatio="xMidYMid meet">

<g transform="translate(0.000000,512.000000) scale(0.100000,-0.100000)"
fill="#000000" stroke="none">
<path d="M3322 4664 c-218 -36 -409 -134 -574 -292 -228 -219 -347 -516 -336
-834 l4 -120 -85 6 c-568 45 -1144 350 -1692 897 -136 136 -153 149 -185 149
-19 0 -44 -5 -55 -10 -25 -14 -101 -165 -133 -266 -66 -208 -65 -439 4 -644
28 -86 100 -237 139 -294 17 -24 31 -48 31 -51 0 -4 -20 5 -44 19 -80 47 -153
25 -172 -50 -10 -40 12 -255 35 -346 56 -218 183 -418 348 -549 l66 -53 -31
-8 c-36 -10 -72 -51 -72 -84 0 -30 44 -153 83 -229 122 -245 347 -434 612
-516 41 -13 75 -27 75 -30 0 -13 -125 -88 -220 -133 -241 -114 -562 -163 -894
-136 -152 12 -158 12 -184 -7 -36 -27 -49 -73 -32 -113 24 -59 294 -227 503
-315 408 -170 869 -239 1369 -204 263 18 384 41 653 125 924 289 1582 921
1886 1812 107 314 159 580 180 922 l11 175 171 175 c247 252 350 396 333 465
-10 41 -50 75 -87 75 -18 0 -52 -12 -76 -26 -40 -23 -144 -64 -165 -64 -4 0
15 28 43 63 77 95 130 210 136 294 5 63 3 72 -20 98 -37 43 -88 41 -159 -7
-136 -90 -293 -149 -448 -169 l-90 -12 -32 27 c-188 153 -346 228 -549 261
-113 18 -235 18 -347 -1z m258 -185 c197 -20 358 -91 510 -225 l75 -66 125 6
c120 5 214 23 319 60 24 9 45 16 48 16 13 0 -76 -92 -165 -172 -114 -100 -128
-123 -112 -174 22 -67 76 -78 243 -48 49 8 94 13 100 10 7 -2 -59 -73 -145
-158 -150 -146 -157 -155 -163 -200 -4 -27 -5 -63 -2 -80 7 -48 -10 -306 -29
-433 -93 -636 -347 -1167 -754 -1575 -339 -340 -785 -586 -1322 -729 -171 -45
-307 -62 -569 -68 -466 -11 -820 50 -1174 203 l-90 39 94 7 c407 32 741 165
994 398 103 95 120 144 70 200 -26 28 -36 32 -119 40 -220 23 -442 135 -572
289 -37 43 -122 172 -122 184 0 3 42 7 92 9 169 9 258 54 258 128 0 52 -29 85
-87 99 -79 20 -194 74 -285 134 -173 114 -293 284 -348 493 -18 69 -25 114
-17 114 1 0 31 -9 66 -20 85 -27 197 -36 245 -20 41 13 66 51 66 99 0 23 -17
48 -80 116 -291 314 -386 649 -278 983 11 34 22 62 25 62 3 0 53 -46 112 -102
417 -403 874 -678 1326 -798 191 -51 284 -63 483 -64 l184 -1 25 29 c28 32 27
20 3 226 -27 238 54 497 217 688 139 162 361 278 578 302 39 4 71 8 71 9 1 0
48 -4 104 -10z"/>
</g>
</svg>
